<?xml version="1.0" standalone="no"?>
<!DOCTYPE svg PUBLIC "-//W3C//DTD SVG 20010904//EN"
 "http://www.w3.org/TR/2001/REC-SVG-20010904/DTD/svg10.dtd">
<svg version="1.0" xmlns="http://www.w3.org/2000/svg"
 width="1600.000000pt" height="1600.000000pt" viewBox="0 0 1600.000000 1600.000000"
 preserveAspectRatio="xMidYMid meet">

<g transform="translate(0.000000,1600.000000) scale(0.100000,-0.100000)"
fill="#000000" stroke="none">
<path d="M3610 12940 c-344 -7 -473 -17 -642 -50 -395 -76 -741 -311 -976
-661 -146 -218 -216 -437 -254 -789 -19 -185 -19 -6695 0 -6880 38 -352 108
-571 254 -789 233 -348 576 -582 968 -660 165 -32 255 -41 555 -51 370 -13
8596 -13 8970 0 289 10 455 26 599 60 378 88 712 325 929 660 146 227 212 431
249 780 10 101 13 752 13 3440 0 3519 1 3409 -46 3675 -70 388 -289 730 -622
968 -241 173 -493 255 -887 288 -154 13 -8525 21 -9110 9z m4110 -4941 l0
-4390 -2172 4 c-2208 5 -2255 5 -2455 42 -277 51 -505 213 -658 467 -99 162
-131 314 -145 688 -13 324 -13 6056 0 6380 16 426 56 576 204 777 121 164 314
303 491 353 220 62 368 66 2848 68 l1887 2 0 -4391z m4975 4372 c252 -23 379
-56 511 -135 150 -89 268 -207 359 -358 99 -163 131 -314 145 -693 13 -331 13
-6053 0 -6375 -14 -374 -46 -526 -145 -688 -153 -254 -381 -416 -658 -467
-200 -37 -247 -37 -2454 -42 l-2173 -4 0 4391 0 4392 2148 -5 c1418 -3 2188
-9 2267 -16z"/>
<path d="M4077 10939 c-59 -12 -111 -44 -156 -95 -47 -53 -64 -99 -64 -174 -1
-109 47 -192 143 -248 l45 -27 1355 0 1355 0 45 27 c60 35 94 73 121 133 41
94 26 210 -37 284 -50 58 -100 87 -169 100 -74 14 -2567 13 -2638 0z"/>
<path d="M4077 8939 c-59 -12 -111 -44 -156 -95 -47 -53 -64 -99 -64 -174 -1
-109 47 -192 143 -248 l45 -27 1355 0 1355 0 45 27 c60 35 94 73 121 133 41
94 26 210 -37 284 -50 58 -100 87 -169 100 -74 14 -2567 13 -2638 0z"/>
<path d="M4077 6939 c-59 -12 -111 -44 -156 -95 -47 -53 -64 -99 -64 -174 -1
-109 47 -192 143 -248 l45 -27 1355 0 1355 0 45 27 c60 35 94 73 121 133 41
94 26 210 -37 284 -50 58 -100 87 -169 100 -74 14 -2567 13 -2638 0z"/>
</g>
</svg>
