<svg xmlns="http://www.w3.org/2000/svg" viewBox="0 0 353.4 128.4" role="img" aria-label="cabinet">
  <title>cabinet</title>
  <path d="M32.256 112.256Q25.216 112.256 20.608 106.432Q15.999999999999998 100.608 15.999999999999998 91.52Q15.999999999999998 82.944 18.752 74.68799999999999Q21.503999999999998 66.43199999999999 26.176 59.71199999999999Q30.848 52.992 36.544 49.024Q42.239999999999995 45.056 48.0 45.056Q54.144 45.056 58.368 48.384Q59.008 48.896 59.135999999999996 49.216Q59.263999999999996 49.536 59.008 50.559999999999995L55.552 67.328Q55.168 69.12 53.888 69.12Q52.48 69.12 52.224 67.19999999999999L51.583999999999996 58.111999999999995Q51.199999999999996 52.224 49.855999999999995 50.432Q48.512 48.64 45.952 48.64Q42.367999999999995 48.64 38.656 52.16Q34.944 55.68 31.808 61.632000000000005Q28.671999999999997 67.584 26.816 74.816Q24.96 82.048 24.96 89.472Q24.96 105.6 35.456 105.6Q40.448 105.6 44.480000000000004 100.99199999999999Q48.512 96.384 51.967999999999996 86.656Q52.352 85.376 53.76 85.376Q54.528 85.376 54.656 85.952Q54.784 86.52799999999999 54.4 88.19200000000001Q53.12 95.232 49.792 100.608Q46.464 105.984 41.92 109.12Q37.376 112.256 32.256 112.256Z M66.56 112.256Q61.952000000000005 112.256 59.39200000000001 108.288Q56.83200000000001 104.32 56.83200000000001 96.64Q56.83200000000001 89.344 58.88000000000001 81.984Q60.928000000000004 74.624 64.512 67.96799999999999Q68.096 61.312 72.64000000000001 56.19199999999999Q77.18400000000001 51.071999999999996 82.24000000000001 48.06399999999999Q87.296 45.056 92.28800000000001 45.056Q94.72 45.056 96.896 46.016Q99.072 46.976 100.48 49.024Q101.248 50.175999999999995 102.016 50.175999999999995Q102.784 50.175999999999995 103.552 49.024Q104.96000000000001 46.976 105.85600000000001 46.4Q106.75200000000001 45.824 107.52000000000001 45.824Q109.184 45.824 108.80000000000001 47.616L97.40800000000002 96.64Q95.488 104.96 99.96800000000002 104.96Q102.912 104.96 105.28 100.99199999999999Q107.64800000000001 97.024 110.08000000000001 88.704Q110.464 87.29599999999999 111.744 87.29599999999999Q112.64000000000001 87.29599999999999 112.89600000000002 88.064Q113.15200000000002 88.832 112.89600000000002 89.856Q110.464 101.888 106.368 107.072Q102.272 112.256 96.512 112.256Q91.52000000000001 112.256 89.40800000000002 108.032Q87.296 103.80799999999999 88.96000000000001 96.512L90.62400000000001 89.472Q90.88000000000001 88.576 90.304 88.448Q89.72800000000001 88.32 89.34400000000001 89.088Q82.304 102.01599999999999 76.864 107.136Q71.424 112.256 66.56 112.256ZM69.76 105.728Q72.83200000000001 105.728 76.54400000000001 102.01599999999999Q80.256 98.304 83.904 92.416Q87.552 86.52799999999999 90.624 79.744Q93.696 72.96000000000001 95.552 66.688Q97.40800000000002 60.416 97.40800000000002 56.064Q97.40800000000002 48.256 91.90400000000001 48.256Q88.57600000000001 48.256 84.864 51.263999999999996Q81.15200000000002 54.272 77.76000000000002 59.391999999999996Q74.36800000000001 64.512 71.61600000000001 70.976Q68.864 77.44 67.2 84.416Q65.536 91.392 65.536 98.048Q65.536 102.52799999999999 66.624 104.12799999999999Q67.712 105.728 69.76 105.728Z M129.40800000000002 112.256Q125.05600000000001 112.256 121.66400000000002 109.888Q118.27200000000002 107.52 116.92800000000003 102.72Q115.58400000000002 97.92 117.24800000000002 90.752L131.584 29.183999999999997Q132.22400000000002 26.879999999999995 131.64800000000002 25.983999999999995Q131.072 25.087999999999994 129.28000000000003 24.959999999999994L125.44000000000001 24.575999999999993Q123.52000000000001 24.447999999999993 123.77600000000001 22.911999999999992Q124.03200000000001 21.75999999999999 125.56800000000001 21.50399999999999Q130.17600000000002 20.736000000000004 133.76000000000002 19.648000000000003Q137.34400000000002 18.560000000000002 139.52 16.768Q140.544 16.0 141.44000000000003 16.0Q142.976 16.0 142.592 17.92L130.94400000000002 68.22399999999999Q130.816 69.12 131.328 69.248Q131.84 69.376 132.22400000000002 68.608Q139.264 55.168 144.832 50.111999999999995Q150.4 45.056 155.264 45.056Q160.0 45.056 162.752 49.024Q165.50400000000002 52.992 165.50400000000002 60.672Q165.50400000000002 67.96799999999999 163.39200000000002 75.328Q161.28000000000003 82.688 157.632 89.344Q153.984 96.0 149.312 101.12Q144.64000000000001 106.24 139.52 109.24799999999999Q134.4 112.256 129.40800000000002 112.256ZM129.79200000000003 109.056Q133.12 109.056 136.832 106.048Q140.544 103.03999999999999 144.06400000000002 97.984Q147.584 92.928 150.4 86.592Q153.216 80.256 154.88 73.536Q156.544 66.816 156.544 60.544Q156.544 55.68 155.52 53.696Q154.496 51.711999999999996 151.936 51.711999999999996Q149.12 51.711999999999996 145.536 55.16799999999999Q141.95200000000003 58.623999999999995 138.24 64.32Q134.52800000000002 70.01599999999999 131.32800000000003 76.672Q128.12800000000001 83.328 126.20800000000001 89.792Q124.28800000000001 96.256 124.28800000000001 101.248Q124.28800000000001 109.056 129.79200000000003 109.056Z M189.44000000000003 33.664Q187.00800000000004 33.664 185.40800000000002 31.936Q183.80800000000002 30.208 183.80800000000002 27.775999999999996Q183.80800000000002 24.319999999999993 185.92000000000002 22.272Q188.03200000000004 20.224000000000004 190.72000000000003 20.224000000000004Q193.28000000000003 20.224000000000004 195.00800000000004 21.823999999999998Q196.73600000000005 23.423999999999992 196.73600000000005 25.983999999999995Q196.73600000000005 29.567999999999998 194.56000000000006 31.616Q192.38400000000004 33.664 189.44000000000003 33.664ZM178.94400000000002 112.384Q174.72000000000003 112.384 172.92800000000003 109.24799999999999Q171.13600000000002 106.112 172.80000000000004 98.944L182.27200000000002 58.367999999999995Q182.91200000000003 55.552 182.46400000000003 53.952Q182.01600000000002 52.352 180.09600000000003 52.352Q177.79200000000003 52.352 175.04000000000002 55.744Q172.28800000000004 59.135999999999996 168.83200000000002 68.608Q168.32000000000002 70.27199999999999 167.04000000000002 70.27199999999999Q165.12000000000003 70.27199999999999 166.01600000000002 67.96799999999999Q168.83200000000002 59.135999999999996 171.96800000000002 54.144Q175.10400000000004 49.152 178.30400000000003 47.104Q181.50400000000002 45.056 184.19200000000004 45.056Q188.67200000000003 45.056 190.46400000000003 48.19199999999999Q192.25600000000003 51.327999999999996 190.59200000000004 58.495999999999995L181.12000000000003 99.072Q180.48000000000002 101.888 180.92800000000003 103.488Q181.37600000000003 105.088 183.29600000000002 105.088Q185.60000000000002 105.088 188.35200000000003 101.696Q191.10400000000004 98.304 194.56000000000003 88.832Q195.07200000000003 87.168 196.35200000000003 87.168Q198.27200000000005 87.168 197.37600000000003 89.472Q194.68800000000005 98.176 191.42400000000004 103.232Q188.16000000000003 108.288 184.96000000000004 110.336Q181.76000000000005 112.384 178.94400000000002 112.384Z M203.13600000000002 109.44 215.29600000000002 58.367999999999995Q215.93600000000004 55.552 215.48800000000003 53.952Q215.04000000000002 52.352 213.12000000000003 52.352Q210.81600000000003 52.352 208.06400000000002 55.744Q205.31200000000004 59.135999999999996 201.85600000000002 68.608Q201.34400000000002 70.27199999999999 200.06400000000002 70.27199999999999Q198.14400000000003 70.27199999999999 199.04000000000002 67.96799999999999Q201.85600000000002 59.135999999999996 204.99200000000002 54.144Q208.12800000000004 49.152 211.32800000000003 47.104Q214.52800000000002 45.056 217.21600000000004 45.056Q221.44000000000003 45.056 223.23200000000003 48.19199999999999Q225.02400000000003 51.327999999999996 223.36000000000004 58.495999999999995L220.16000000000003 72.32Q220.03200000000004 73.21600000000001 220.54400000000004 73.34400000000001Q221.05600000000004 73.47200000000001 221.44000000000003 72.70400000000001Q226.43200000000004 62.336 231.04000000000002 56.256Q235.64800000000002 50.175999999999995 239.74400000000003 47.616Q243.84000000000003 45.056 247.16800000000003 45.056Q251.90400000000002 45.056 254.08000000000004 48.896Q256.25600000000003 52.736 254.08000000000004 60.672L244.35200000000003 97.792Q243.45600000000002 101.376 244.22400000000002 103.168Q244.99200000000002 104.96 247.04000000000002 104.96Q249.60000000000002 104.96 252.09600000000003 101.568Q254.59200000000004 98.176 257.28000000000003 88.704Q257.66400000000004 87.29599999999999 258.944 87.29599999999999Q259.968 87.29599999999999 260.16 88.064Q260.35200000000003 88.832 260.096 89.856Q257.66400000000004 98.56 254.84800000000004 103.488Q252.03200000000004 108.416 249.15200000000004 110.336Q246.27200000000005 112.256 243.32800000000003 112.256Q238.72000000000003 112.256 236.41600000000003 108.416Q234.11200000000002 104.576 236.16000000000003 96.512L246.01600000000002 59.391999999999996Q247.42400000000004 54.4 246.46400000000003 52.48Q245.50400000000002 50.559999999999995 243.71200000000005 50.559999999999995Q240.89600000000004 50.559999999999995 237.31200000000004 54.08Q233.72800000000004 57.6 230.01600000000002 63.67999999999999Q226.30400000000003 69.75999999999999 222.72000000000003 77.44Q219.13600000000002 85.12 216.25600000000003 93.44Q213.37600000000003 101.76 211.58400000000003 109.696Q211.20000000000005 111.104 209.79200000000003 111.104H204.54400000000004Q202.75200000000004 111.104 203.13600000000002 109.44Z M275.712 112.256Q268.928 112.256 264.832 106.944Q260.736 101.632 260.736 91.904Q260.736 83.456 263.744 75.136Q266.752 66.816 271.616 60.032Q276.48 53.248 282.304 49.152Q288.128 45.056 293.632 45.056Q299.64799999999997 45.056 302.27199999999993 47.93599999999999Q304.89599999999996 50.815999999999995 304.89599999999996 55.68Q304.89599999999996 61.44 300.864 67.136Q296.832 72.832 289.6 77.312Q282.368 81.792 272.64 83.968Q269.824 84.608 269.69599999999997 87.168Q269.568 88.064 269.568 89.024Q269.568 89.984 269.568 90.88Q269.568 98.176 272.06399999999996 101.888Q274.56 105.6 278.912 105.6Q283.776 105.6 288.32 101.12Q292.864 96.64 295.936 88.44800000000001Q296.32 87.29599999999999 297.472 87.29599999999999Q298.24 87.29599999999999 298.432 87.93599999999999Q298.62399999999997 88.576 298.368 89.472Q294.272 100.736 288.448 106.49600000000001Q282.62399999999997 112.256 275.712 112.256ZM270.976 79.104Q270.71999999999997 80.0 271.296 80.576Q271.872 81.152 272.768 80.896Q280.704 78.72 286.08000000000004 74.304Q291.456 69.888 294.20799999999997 64.384Q296.96 58.879999999999995 296.96 53.632Q296.96 48.256 292.736 48.256Q289.024 48.256 284.672 52.608000000000004Q280.32 56.96 276.608 64.0Q272.896 71.03999999999999 270.976 79.104Z M312.96 112.256Q308.608 112.256 306.176 108.8Q303.74399999999997 105.344 305.408 97.664L316.032 51.327999999999996Q316.416 49.408 314.496 49.408H309.632Q307.84 49.408 307.84 47.744Q307.84 46.848 308.48 46.336Q309.12 45.824 310.016 45.824H314.624Q317.568 45.824 318.08 43.135999999999996L321.152 29.439999999999998Q321.536 28.031999999999996 322.944 28.031999999999996H328.192Q329.984 28.031999999999996 329.6 29.695999999999998L326.4 43.903999999999996Q326.016 45.824 327.936 45.824H335.23199999999997Q337.408 45.824 337.408 47.488Q337.408 49.408 334.72 49.408H327.808Q324.992 49.408 324.352 52.096L313.6 98.944Q312.96 101.76 313.79200000000003 103.36Q314.624 104.96 316.672 104.96Q319.616 104.96 322.11199999999997 101.632Q324.608 98.304 327.424 88.96Q327.936 87.29599999999999 329.088 87.29599999999999Q329.984 87.29599999999999 330.24 88.064Q330.496 88.832 329.856 90.88Q327.424 99.584 324.544 104.19200000000001Q321.664 108.8 318.72 110.52799999999999Q315.776 112.256 312.96 112.256Z" fill="#3b2f2f"/>
</svg>
