<svg xmlns="http://www.w3.org/2000/svg" viewBox="0 0 120 120" width="120" height="120">
  <rect width="120" height="120" fill="#1e2330"/>
  <path d="M14 120 Q14 84 60 80 Q106 84 106 120 Z" fill="#2a2a2a"/>
  <rect x="53" y="70" width="14" height="14" fill="#6b3f26"/>
  <circle cx="60" cy="54" r="22" fill="#6b3f26"/>
  <path d="M38 50 Q40 32 60 30 Q80 32 82 50 Q78 42 60 42 Q42 42 38 50 Z" fill="#2a1d14"/>
  <path d="M38 34 L44 16 L52 30 L60 12 L68 30 L76 16 L82 34 L82 42 L38 42 Z" fill="#f4c430"/>
  <circle cx="60" cy="20" r="2.5" fill="#c92e2e"/>
  <rect x="40" y="48" width="16" height="10" fill="#1a1a1a" rx="2"/>
  <rect x="64" y="48" width="16" height="10" fill="#1a1a1a" rx="2"/>
  <rect x="56" y="52" width="8" height="2" fill="#1a1a1a"/>
</svg>
