<svg xmlns="http://www.w3.org/2000/svg" viewBox="0 0 120 120" width="120" height="120">
  <rect width="120" height="120" fill="#ece3d6"/>
  <path d="M14 120 Q14 84 60 80 Q106 84 106 120 Z" fill="#2a2a2a"/>
  <rect x="53" y="70" width="14" height="14" fill="#915a3c"/>
  <circle cx="60" cy="54" r="22" fill="#915a3c"/>
  <path d="M38 50 Q40 32 60 30 Q80 32 82 50 Q78 42 60 42 Q42 42 38 50 Z" fill="#2a1d14"/>
  <path d="M44 60 Q50 66 60 62 Q70 66 76 60 Q70 64 60 64 Q50 64 44 60 Z" fill="#2a1d14"/>
  <path d="M58 82 L62 82 L64 88 L62 108 L58 108 L56 88 Z" fill="#c92e2e"/>
</svg>
