<svg xmlns="http://www.w3.org/2000/svg" viewBox="0 0 120 120" width="120" height="120">
  <rect width="120" height="120" fill="#d8d0e2"/>
  <path d="M14 120 Q14 84 60 80 Q106 84 106 120 Z" fill="#3a6ac2"/>
  <rect x="53" y="70" width="14" height="14" fill="#915a3c"/>
  <circle cx="60" cy="54" r="22" fill="#915a3c"/>
  <path d="M36 50 L34 92 L42 92 L42 50 Z" fill="#2a1d14"/>
  <path d="M78 50 L78 92 L86 92 L84 50 Z" fill="#2a1d14"/>
  <path d="M38 50 Q60 32 82 50 Q82 42 60 36 Q38 42 38 50 Z" fill="#2a1d14"/>
  <circle cx="45" cy="94" r="3" fill="#2a1d14"/>
  <circle cx="81" cy="94" r="3" fill="#2a1d14"/>
  <path d="M32 50 Q32 32 60 28 Q88 32 88 50 L88 54 Q60 46 32 54 Z" fill="#3a6ac2"/>
  <path d="M82 48 L94 58 L84 60 Z" fill="#3a6ac2"/>
</svg>
