<svg xmlns="http://www.w3.org/2000/svg" viewBox="0 0 120 120" width="120" height="120">
  <rect width="120" height="120" fill="#d8d0e2"/>
  <path d="M14 120 Q14 84 60 80 Q106 84 106 120 Z" fill="#6b3f8a"/>
  <rect x="53" y="70" width="14" height="14" fill="#f2d4b3"/>
  <circle cx="60" cy="54" r="22" fill="#f2d4b3"/>
  <path d="M38 40 L62 4 L82 40 Z" fill="#6b4a8a"/>
  <rect x="30" y="38" width="60" height="6" fill="#6b4a8a"/>
  <path fill-rule="evenodd" d="M34 70 Q30 40 60 30 Q90 40 86 70 L92 100 Q60 90 28 100 Z M40 54 a20 20 0 1 0 40 0 a20 20 0 1 0 -40 0 Z" fill="#f0ebe2"/>
  <path d="M40 50 Q60 34 80 50 Q80 44 60 38 Q40 44 40 50 Z" fill="#f0ebe2"/>
  <path d="M40 58 Q40 94 60 106 Q80 94 80 58 Q80 68 60 70 Q40 68 40 58 Z" fill="#f0ebe2"/>
  <path d="M42 54 Q50 62 58 54" fill="none" stroke="#1a1a1a" stroke-width="2"/>
  <path d="M62 54 Q70 62 78 54" fill="none" stroke="#1a1a1a" stroke-width="2"/>
  <line x1="58" y1="54" x2="62" y2="54" stroke="#1a1a1a" stroke-width="2"/>
</svg>
