<svg xmlns="http://www.w3.org/2000/svg" viewBox="0 0 120 120" width="120" height="120">
  <rect width="120" height="120" fill="#1e2330"/>
  <path d="M14 120 Q14 84 60 80 Q106 84 106 120 Z" fill="#6b4a30"/>
  <rect x="53" y="70" width="14" height="14" fill="#915a3c"/>
  <circle cx="60" cy="54" r="22" fill="#915a3c"/>
  <circle cx="38" cy="46" r="13" fill="#8a5a2a"/>
  <circle cx="82" cy="46" r="13" fill="#8a5a2a"/>
  <circle cx="48" cy="26" r="14" fill="#8a5a2a"/>
  <circle cx="60" cy="22" r="14" fill="#8a5a2a"/>
  <circle cx="72" cy="26" r="14" fill="#8a5a2a"/>
  <circle cx="40" cy="58" r="10" fill="#8a5a2a"/>
  <circle cx="80" cy="58" r="10" fill="#8a5a2a"/>
  <path d="M40 58 Q40 92 60 96 Q80 92 80 58 Q80 70 60 72 Q40 70 40 58 Z" fill="#8a5a2a"/>
  <path d="M55 60 L57 68 L59 60 Z" fill="#f0ebe2"/>
  <path d="M61 60 L63 68 L65 60 Z" fill="#f0ebe2"/>
  <path d="M36 48 L34 38 L44 52 Z" fill="#915a3c"/>
  <path d="M84 48 L86 38 L76 52 Z" fill="#915a3c"/>
</svg>
