<svg xmlns="http://www.w3.org/2000/svg" viewBox="0 0 120 120" width="120" height="120">
  <rect width="120" height="120" fill="#eee6d9"/>
  <path d="M14 120 Q14 84 60 80 Q106 84 106 120 Z" fill="#2a2a2a"/>
  <rect x="53" y="70" width="14" height="14" fill="#f2d4b3"/>
  <circle cx="60" cy="54" r="22" fill="#f2d4b3"/>
  <path d="M42 44 Q60 38 78 44 L78 46 Q60 42 42 46 Z" fill="#a39e8f" opacity="0.25"/>
  <circle cx="50" cy="54" r="6" fill="none" stroke="#1a1a1a" stroke-width="2"/>
  <circle cx="70" cy="54" r="6" fill="none" stroke="#1a1a1a" stroke-width="2"/>
  <line x1="56" y1="54" x2="64" y2="54" stroke="#1a1a1a" stroke-width="2"/>
  <path d="M40 64 Q40 72 60 72 Q80 72 80 64 Q80 70 60 70 Q40 70 40 64 Z" fill="#2a1d14" opacity="0.3"/>
</svg>
