<svg xmlns="http://www.w3.org/2000/svg" viewBox="0 0 120 120" width="120" height="120">
  <rect width="120" height="120" fill="#f3ede4"/>
  <path d="M14 120 Q14 84 60 80 Q106 84 106 120 Z" fill="#7a7a7a"/>
  <rect x="53" y="70" width="14" height="14" fill="#f2d4b3"/>
  <circle cx="60" cy="54" r="22" fill="#f2d4b3"/>
  <circle cx="38" cy="46" r="13" fill="#f0ebe2"/>
  <circle cx="82" cy="46" r="13" fill="#f0ebe2"/>
  <circle cx="48" cy="26" r="14" fill="#f0ebe2"/>
  <circle cx="60" cy="22" r="14" fill="#f0ebe2"/>
  <circle cx="72" cy="26" r="14" fill="#f0ebe2"/>
  <circle cx="40" cy="58" r="10" fill="#f0ebe2"/>
  <circle cx="80" cy="58" r="10" fill="#f0ebe2"/>
  <path d="M44 60 Q50 66 60 62 Q70 66 76 60 Q70 64 60 64 Q50 64 44 60 Z" fill="#f0ebe2"/>
</svg>
