<svg xmlns="http://www.w3.org/2000/svg" viewBox="0 0 120 120" width="120" height="120">
  <rect width="120" height="120" fill="#dfe6d6"/>
  <path d="M14 120 Q14 84 60 80 Q106 84 106 120 Z" fill="#2a2a2a"/>
  <rect x="53" y="70" width="14" height="14" fill="#6aa84f"/>
  <circle cx="60" cy="54" r="22" fill="#6aa84f"/>
  <path d="M36 54 Q36 28 60 28 Q84 28 84 54 L80 54 L80 42 L40 42 L40 54 Z" fill="#2a1d14"/>
  <rect x="40" y="42" width="40" height="8" fill="#2a1d14"/>
  <line x1="46" y1="46" x2="54" y2="58" stroke="#a8584a" stroke-width="1.5"/>
  <rect x="32" y="58" width="6" height="4" fill="#6a7a7a"/>
  <rect x="30" y="56" width="2" height="8" fill="#6a7a7a"/>
  <rect x="82" y="58" width="6" height="4" fill="#6a7a7a"/>
  <rect x="88" y="56" width="2" height="8" fill="#6a7a7a"/>
</svg>
