<svg xmlns="http://www.w3.org/2000/svg" viewBox="0 0 120 120" width="120" height="120">
  <rect width="120" height="120" fill="#dfe6d6"/>
  <path d="M14 120 Q14 84 60 80 Q106 84 106 120 Z" fill="#9a8855"/>
  <rect x="53" y="70" width="14" height="14" fill="#e8b98d"/>
  <circle cx="60" cy="54" r="22" fill="#e8b98d"/>
  <path d="M38 50 Q40 32 60 30 Q80 32 82 50 Q78 42 60 42 Q42 42 38 50 Z" fill="#3a2a20"/>
  <path d="M38 40 Q38 24 60 22 Q82 24 82 40 Z" fill="#4a5a3a"/>
  <path d="M30 40 L62 40 Q62 36 60 36 Q42 36 30 40 Z" fill="#4a5a3a"/>
  <path d="M40 58 Q40 76 60 76 Q80 76 80 58 Q80 68 60 70 Q40 68 40 58 Z" fill="#3a2a20"/>
  <rect x="60" y="62" width="18" height="3" fill="#6b3f1f"/>
  <rect x="76" y="62" width="3" height="3" fill="#c24232"/>
</svg>
